# xmcd CD database file
#
# Track frame offsets:
#	150
#	11776
#	24596
#	36473
#	41260
#	51870
#	65867
#	79184
#	93125
#	106077
#	118580
#	132565
#	150231
#	165095
#	179726
#	198643
#	208011
#	228734
#	247951
#	265318
#	269535
#	281021
#	281666
#	289556
#	290421
#	302808
#
# Disc length: 4229 seconds
#
# Revision: 2
# Processed by: cddbd v1.5PL3 Copyright (c) Steve Scherf et al.
# Submitted via: CDex 1.50
#
DISCID=8210831a
DTITLE=The Cream - The Cream Remasters 2 - Outakes and Alternates [CD1]
DYEAR=2004
DGENRE=Psychedelic Rock
TTITLE0=Beauty Queen (rehearsal)
TTITLE1=Coffee Song (rehearsal)
TTITLE2=You Make Me Feel (rehearsal)
TTITLE3=Wrapping Paper (rehearsal 1)
TTITLE4=Wrapping Paper (alternate)
TTITLE5=Cats Squirrel (rehearsal)
TTITLE6=Cats Squirrel (alternate)
TTITLE7=I Feel Free (rehearsal)
TTITLE8=I Feel Free (incomplete)
TTITLE9=I Feel Free (alternate)
TTITLE10=Sweet Wine (rehearsal 1)
TTITLE11=Sweet Wine (rehearsal 2)
TTITLE12=Sweet Wine (incomplete)
TTITLE13=Sweet Wine (alternate)
TTITLE14=Sleepy Time Time (alternate)
TTITLE15=Four Until Late (alternate)
TTITLE16=Rollin' and Tumblin' (alternate)
TTITLE17=Toad (rehearsal)
TTITLE18=I'm So Glad (rehearsal)
TTITLE19=Intro (bbc)
TTITLE20=Wrapping Paper (bbc)
TTITLE21=Intro (bbc)
TTITLE22=Traintime (bbc)
TTITLE23=Intro (bbc)
TTITLE24=Stepping Out (bbc)
TTITLE25=I'm So Glad (bbc)
EXTD=YEAR: 2004
EXTT0=
EXTT1=
EXTT2=
EXTT3=
EXTT4=
EXTT5=
EXTT6=
EXTT7=
EXTT8=
EXTT9=
EXTT10=
EXTT11=
EXTT12=
EXTT13=
EXTT14=
EXTT15=
EXTT16=
EXTT17=
EXTT18=
EXTT19=
EXTT20=
EXTT21=
EXTT22=
EXTT23=
EXTT24=
EXTT25=
PLAYORDER=
